<svg width="172px" height="99px" viewBox="0 0 172 99" version="1.1" xmlns="http://www.w3.org/2000/svg" xmlns:xlink="http://www.w3.org/1999/xlink" xmlns:sketch="http://www.bohemiancoding.com/sketch/ns">
    <title>Group</title>
    <desc>Created with Sketch.</desc>
    <defs></defs>
    <g id="Page-1" stroke="none" stroke-width="1" fill="none" fill-rule="evenodd" sketch:type="MSPage">
        <g id="03" sketch:type="MSArtboardGroup" transform="translate(-164.000000, -201.000000)">
            <g id="Group" sketch:type="MSLayerGroup" transform="translate(164.000000, 200.000000)">
                <path d="M101.842579,39.5679051 L93.796848,46.9464433 C95.0011644,47.9339896 96.2203003,48.9073657 97.4493443,49.8596047 C101.019284,52.6255236 104.495782,55.0729874 107.829452,57.119175 C114.79394,61.3939388 120.87646,63.8040404 126.2,63.8040404 C143.423147,63.8040404 157.4,49.9213077 157.4,32.7777778 C157.4,17.3304288 146.052066,4.53055071 131.206447,2.1489268 L131.206447,2.1489268 C131.408794,3.44136595 131.388882,4.77646598 131.167649,6.11111851 C130.801965,8.31721719 129.923769,10.4177696 128.652442,12.5636588 C128.627988,12.6049353 128.603393,12.6462117 128.57866,12.6874881 C138.730807,13.8559761 146.6,22.4119864 146.6,32.7777778 C146.6,43.940236 137.474746,53.0040404 126.2,53.0040404 C123.354912,53.0040404 118.885229,51.2329994 113.479083,47.9147379 C110.508838,46.0916178 107.344409,43.8638515 104.063946,41.3222135 C103.3203,40.7460518 102.579345,40.1606273 101.842579,39.5679051 L101.842579,39.5679051 Z M49.6045057,13.2721127 C50.3301987,10.640345 52.2574939,8.26903437 55.3201117,6.9474412 L58.8144948,5.43953093 C54.0339331,3.05300311 49.712037,1.75151515 45.8,1.75151515 C28.576853,1.75151515 14.6,15.6342479 14.6,32.7777778 C14.6,49.9213077 28.576853,63.8040404 45.8,63.8040404 C49.0633971,63.8040404 52.6120067,62.8983618 56.4741608,61.2126524 L56.4741608,61.2126524 L42.6087599,53.1051427 C42.3537236,52.9560154 42.1099417,52.7975622 41.8774236,52.6306113 C32.4823827,50.8168074 25.4,42.6117066 25.4,32.7777778 C25.4,21.6153196 34.5252539,12.5515152 45.8,12.5515152 C46.8560621,12.5515152 48.1359616,12.7955299 49.6045057,13.2721127 L49.6045057,13.2721127 Z" id="Shape" fill="#FFFFFF" sketch:type="MSShapeGroup"></path>
                <path d="M83.6440215,44.1021367 C82.7677975,44.7750498 81.2317058,45.6571429 80.206564,46.0749965 L62.8434202,53.1523123 C61.8211888,53.5689796 60.2608199,53.3883837 59.3621198,52.7516895 L45.2804191,42.7753523 C44.8276451,42.4545795 44.8657716,42.0115509 45.3687405,41.7843915 L48.5386533,40.3527411 C49.5420048,39.8995902 51.2305159,39.7282601 52.3060293,39.9691643 L61.4342311,42.0137902 C62.5115438,42.2550975 64.1212289,41.9384064 65.0247426,41.3097949 L75.9711416,33.6939364 C77.3348727,32.7451328 77.5329134,30.9820392 76.4024861,29.784883 C76.4024861,29.784883 75.231943,28.3425946 69.8798169,23.3869862 C64.5276909,18.4313778 59.3999064,14.7521274 59.3999064,14.7521274 C58.0793635,13.7664743 58.2793673,12.5462441 59.8590367,12.0225531 L63.8771002,10.6904872 C65.4512138,10.1686381 67.9763788,10.2190369 69.5379827,10.810928 L91.1234077,18.9924013 C92.1549543,19.383386 93.7486684,19.2219323 94.6821896,18.6312589 C94.6821896,18.6312589 107.963331,10.2598633 109.861966,8.74658653 C111.760601,7.23330972 117.240239,3.5605241 119.566567,4.89619147 C119.566567,4.89619147 123.352467,3.36728701 124.746387,5.20510612 C128.277366,9.63525357 115.892335,19.3364233 115.892335,19.3364233 L83.6440215,44.1021367 Z" id="Shape-Copy" fill="#FFFFFF" sketch:type="MSShapeGroup" transform="translate(85.172164, 28.838222) rotate(-5.000000) translate(-85.172164, -28.838222) "></path>
                <path d="M3.85153915,99 L3.85153915,86.5 L0.671539149,86.5 L0.671539149,99 L3.85153915,99 Z M16.6700006,94.62 L11.4700006,86.5 L8.0300006,86.5 L8.0300006,99 L11.0100006,99 L11.0100006,90.9 L16.2700006,99.12 L19.6500006,99.12 L19.6500006,86.5 L16.6700006,86.5 L16.6700006,94.62 Z M23.788462,99 L26.928462,99 L26.928462,94.3 L31.548462,94.3 L31.548462,91.7 L26.928462,91.7 L26.928462,89.12 L32.728462,89.12 L32.728462,86.5 L23.788462,86.5 L23.788462,99 Z M39.3469235,99 L39.3469235,86.5 L36.1669235,86.5 L36.1669235,99 L39.3469235,99 Z M52.1653849,94.62 L46.9653849,86.5 L43.5253849,86.5 L43.5253849,99 L46.5053849,99 L46.5053849,90.9 L51.7653849,99.12 L55.1453849,99.12 L55.1453849,86.5 L52.1653849,86.5 L52.1653849,94.62 Z M62.4838464,99 L62.4838464,86.5 L59.3038464,86.5 L59.3038464,99 L62.4838464,99 Z M76.9423078,89.16 L76.9423078,86.5 L65.8023078,86.5 L65.8023078,89.16 L69.7823078,89.16 L69.7823078,99 L72.9623078,99 L72.9623078,89.16 L76.9423078,89.16 Z M89.3807693,99 L89.3807693,96.44 L83.3607693,96.44 L83.3607693,94 L88.2007693,94 L88.2007693,91.46 L83.3607693,91.46 L83.3607693,89.06 L89.3807693,89.06 L89.3807693,86.5 L80.2407693,86.5 L80.2407693,99 L89.3807693,99 Z" id="INFINITE-FLIGHT-Copy" fill="#FFFFFF" sketch:type="MSShapeGroup"></path>
                <path d="M171.649999,89.16 L171.649999,86.5 L160.509999,86.5 L160.509999,89.16 L164.489999,89.16 L164.489999,99 L167.669999,99 L167.669999,89.16 L171.649999,89.16 Z M157.231538,99 L157.231538,86.5 L154.051538,86.5 L154.051538,91.36 L149.031538,91.36 L149.031538,86.5 L145.851538,86.5 L145.851538,99 L149.031538,99 L149.031538,94.04 L154.051538,94.04 L154.051538,99 L157.231538,99 Z M142.013077,98.14 L142.013077,91.96 L136.053077,91.96 L136.053077,94.48 L139.133077,94.48 L139.133077,96.32 C138.613077,96.54 137.853077,96.7 137.133077,96.7 C134.753077,96.7 133.493077,95.22 133.493077,92.72 C133.493077,90.4 134.933077,88.9 137.173077,88.9 C138.373077,88.9 139.593077,89.26 140.773077,89.94 L141.773077,87.28 C140.573077,86.56 138.673077,86.2 137.073077,86.2 C132.973077,86.2 130.333077,88.7 130.333077,92.8 C130.333077,96.92 133.053077,99.3 137.053077,99.3 C138.873077,99.3 140.653077,98.88 142.013077,98.14 Z M126.674615,99 L126.674615,86.5 L123.494615,86.5 L123.494615,99 L126.674615,99 Z M119.956154,99 L119.956154,96.34 L114.716154,96.34 L114.716154,86.5 L111.536154,86.5 L111.536154,99 L119.956154,99 Z M99.1776922,99 L102.317692,99 L102.317692,94.3 L106.937692,94.3 L106.937692,91.7 L102.317692,91.7 L102.317692,89.12 L108.117692,89.12 L108.117692,86.5 L99.1776922,86.5 L99.1776922,99 Z" id="Path" fill="#FA9822" sketch:type="MSShapeGroup"></path>
            </g>
        </g>
    </g>
</svg>